<svg xmlns="http://www.w3.org/2000/svg" viewBox="0 0 80.26 117.13749999999999" x="0px" y="0px"><title>Asset 12</title><g data-name="Layer 2"><g data-name="Layer 1"><path d="M63.79,36.18l-.17,0A1,1,0,0,1,62.81,35c0-.09,1.47-7.84,12.39-8.61-2.79-1.42-7.73-2.53-13.59,2.33a1,1,0,0,1-1.28-1.54c10.36-8.61,18.65-.61,18.73-.53a1,1,0,0,1-.75,1.71c-12.1-.59-13.52,6.9-13.53,7A1,1,0,0,1,63.79,36.18Z"/><path d="M57.71,25.6a1,1,0,0,1-.37-.07,1,1,0,0,1-.55-1.31C63.65,7.46,76.16,9.62,76.28,9.64a1,1,0,0,1,.8.86,1,1,0,0,1-.57,1C67,16,68.7,23.41,68.77,23.73a1,1,0,1,1-1.94.48c0-.08-1.73-7.25,5.39-12.48-3.75.71-9.57,3.47-13.58,13.25A1,1,0,0,1,57.71,25.6Z"/><path d="M63.88,16.1a1,1,0,0,1-.94-.67c-.1-.27-2.08-6.2,2.31-13.19-2,.59-5.32,2.61-7.92,9.2a1,1,0,0,1-1.86-.73C60.1-1,67.17,0,67.47,0a1,1,0,0,1,.77.62,1,1,0,0,1-.14,1c-5.31,6.87-3.36,12.88-3.27,13.13A1,1,0,0,1,64.21,16,1,1,0,0,1,63.88,16.1Z"/><path d="M52.56,25.73a1,1,0,0,1-.84-1.55c5.75-8.72-2.12-15.41-2.45-15.69A1,1,0,0,1,49,7.28a1,1,0,0,1,1.13-.53c10,2.39,11,12.83,11,12.93a1,1,0,0,1-.92,1.08,1,1,0,0,1-1.08-.91c0-.31-.62-6.44-5.81-9.66a12.91,12.91,0,0,1,0,15.09A1,1,0,0,1,52.56,25.73Z"/><path d="M49.47,23.58a1,1,0,0,1-1-.85C47.35,15,40,12.52,39.69,12.42a1,1,0,0,1-.69-1,1,1,0,0,1,.71-1c7.65-2.27,14.81,3.82,15.11,4.08a1,1,0,0,1-1.31,1.52c0-.05-4.71-4-10.12-4.09a14.61,14.61,0,0,1,7.07,10.42,1,1,0,0,1-.85,1.13Z"/><path d="M49.08,33.66h-.17a1,1,0,0,1-.82-1.15c1-6.16-9.07-11-9.17-11a1,1,0,0,1-.57-1,1,1,0,0,1,.8-.86c10.78-2.16,17.07,8.57,17.13,8.68a1,1,0,1,1-1.74,1c-.2-.35-4.43-7.53-11.84-8,3.35,2.16,8.25,6.28,7.36,11.5A1,1,0,0,1,49.08,33.66Z"/><path d="M72.72,50.65a1,1,0,0,1-1-.92c-.49-6.6-3-11.5-7.5-14.56a1,1,0,1,1,1.13-1.65c4.94,3.37,7.83,8.93,8.37,16.06a1,1,0,0,1-.92,1.07Z"/><path d="M33.36,72.23a1,1,0,0,1-.88-.52c-2.7-4.9-3.37-11.53-2-19.71,2.18-12.79,8.54-20.65,17.9-22.13a1,1,0,1,1,.31,2C37.33,33.64,33.66,45.46,32.48,52.34c-1.32,7.72-.73,13.91,1.75,18.41a1,1,0,0,1-.39,1.36A1.07,1.07,0,0,1,33.36,72.23Z"/><path d="M59.19,37.86a20.48,20.48,0,0,1-3.38-.29,17.06,17.06,0,0,1-5.39-1.79c-2.18-1.23-2.47-2.47-2.33-3.28a1,1,0,0,1,1.1-.78,1,1,0,0,1,.87,1.11c0,.4,1.8,2,6.09,2.76s6.56-.2,6.66-.58A1,1,0,0,1,64,34.24a1,1,0,0,1,.78,1.11C64.47,37.15,62,37.86,59.19,37.86Z"/><path d="M70.63,51.74A1,1,0,0,1,70,51.5c-9.63-8.17-10.23-14.38-10.25-14.65a1,1,0,0,1,2-.16c0,.06.64,5.73,9.56,13.28a1,1,0,0,1,.11,1.41A1,1,0,0,1,70.63,51.74Z"/><path d="M68.47,63.51a1,1,0,0,1-.61-.22C49.73,49,49.79,35.62,49.8,35.06a1,1,0,0,1,1-1,1,1,0,0,1,1,1c0,.17.05,13,17.3,26.62a1,1,0,0,1-.63,1.79Z"/><path d="M63.54,71.2A1,1,0,0,1,63,71C38.68,53.93,40.58,34.24,40.68,33.41a1,1,0,0,1,2,.22c0,.19-1.82,19.39,21.45,35.75a1,1,0,0,1,.24,1.39A1,1,0,0,1,63.54,71.2Z"/><path d="M58,75.05a.94.94,0,0,1-.53-.16C33.21,59.46,33.69,42.47,33.72,41.75a1,1,0,0,1,1.05-1,1,1,0,0,1,.95,1c0,.22-.34,16.62,22.86,31.37A1,1,0,0,1,58,75.05Z"/><path d="M43.4,74.07a1,1,0,0,1-.62-.21C31.41,64.82,30,56.88,30,56.55a1,1,0,0,1,.83-1.15,1,1,0,0,1,1.14.83c0,.11,1.42,7.58,12.09,16.06a1,1,0,0,1,.16,1.41A1,1,0,0,1,43.4,74.07Z"/><path d="M31,57.39a1,1,0,0,1-.23-2A50.19,50.19,0,0,0,59.35,36.28,1,1,0,0,1,61,37.37a51.27,51.27,0,0,1-29.85,20Z"/><path d="M33.85,46a1,1,0,0,1-.34-1.94A36.94,36.94,0,0,0,48.92,33.84a1,1,0,1,1,1.57,1.23c-.22.28-5.54,7-16.3,10.86A1,1,0,0,1,33.85,46Z"/><path d="M31.52,67.42a1,1,0,0,1-.17-2c28.8-5.17,36.9-26.7,37-26.92a1,1,0,1,1,1.88.68C70.13,39.42,61.63,62,31.7,67.4Z"/><path d="M36.81,72.72a1,1,0,0,1-1-.85,1,1,0,0,1,.83-1.14c19.06-3,28.45-12,32.35-17a1,1,0,1,1,1.58,1.22C66.5,60.23,56.7,69.58,37,72.7Z"/><path d="M20.83,81.69C10.2,81.69,2.09,75,.33,64.4-1.38,54.15,3.57,45.46,13.24,41.72a.46.46,0,0,0,.29-.54c-.17-.82-1.71-3-4-5.33a1,1,0,0,1,.71-1.7A8,8,0,0,1,14.66,36l.2.14a.47.47,0,0,0,.74-.29L16,33a1,1,0,0,1,.8-.84,1,1,0,0,1,1.05.46l1.58,2.63a.36.36,0,0,0,.15.15l.35-.38a7.58,7.58,0,0,1,3.77-2.64,1,1,0,0,1,1.05,1.5,11.64,11.64,0,0,0-1.65,5.7.49.49,0,0,0,.46.42,21.41,21.41,0,0,1,10.29,2.84,1,1,0,1,1-1,1.73A19.44,19.44,0,0,0,23.51,42a2.45,2.45,0,0,1-2.38-2.15,10.1,10.1,0,0,1,.5-3.7l-.21.23c-.63.68-1.05,1.15-1.68,1.11a2.48,2.48,0,0,1-2-1.21L17.59,36l0,.18A2.5,2.5,0,0,1,16,38.07a2.45,2.45,0,0,1-2-.1,8.25,8.25,0,0,1,1.48,2.81A2.46,2.46,0,0,1,14,43.58C5.23,47,.76,54.81,2.31,64.07,4,74.23,12.24,80.48,22.8,79.6a1,1,0,0,1,.17,2C22.25,81.66,21.53,81.69,20.83,81.69Z"/><path d="M13.52,46.19a1,1,0,0,1-.86-.49A1,1,0,0,1,13,44.33c2-1.17.4-4,.34-4.09a1,1,0,1,1,1.73-1c.91,1.6,1.87,5.07-1,6.8A1,1,0,0,1,13.52,46.19Z"/><path d="M24.67,44.29a1,1,0,0,1-.47-.12,5.9,5.9,0,0,1-3.07-4.41,1,1,0,0,1,2-.17,3.9,3.9,0,0,0,2,2.82,1,1,0,0,1-.48,1.88Z"/><path d="M52.34,93.71a42.35,42.35,0,0,1-20.73-5.33A29.57,29.57,0,0,1,20,77.13l-1.91-1.81a1,1,0,0,1-.29-1,9.84,9.84,0,0,1,3.47-5.21,1,1,0,0,1,1-.12l3.44,1.4.12.06c2.94-1.2,7.78-.22,14.27,1.1,3.56.72,7.59,1.54,12.16,2.2,7.82,1.13,12.43-5.3,14.05-8.12,3.09-5.37,3.55-11,2-12.93a1,1,0,0,1,.1-1.34A15,15,0,0,1,74.9,48a1,1,0,0,1,.69.09,10.2,10.2,0,0,1,4.63,6,1,1,0,0,1-.5,1.16c-.09.05-2.22,1.24-3.19,4.84a23.14,23.14,0,0,1-.12,22.7c-3.28,5.73-10.33,9.59-19.34,10.61A41.54,41.54,0,0,1,52.34,93.71ZM19.9,74.28l1.59,1.5a1.24,1.24,0,0,1,.19.26A27.5,27.5,0,0,0,32.6,86.64a40.69,40.69,0,0,0,24.25,4.82c8.37-.95,14.87-4.46,17.82-9.63,6.23-10.87,0-20.91-.06-21a1,1,0,0,1-.13-.77,10.54,10.54,0,0,1,3.59-6A8.22,8.22,0,0,0,75,50.06a13.43,13.43,0,0,0-4.56,2.28C72,55.49,71,61.48,68,66.67c-3.86,6.7-9.71,10-16.08,9.1-4.62-.67-8.68-1.49-12.27-2.22-7.78-1.58-12.92-2.62-14.42-.09a1,1,0,1,1-1.72-1,5.72,5.72,0,0,1,.39-.57l-1.87-.76A8,8,0,0,0,19.9,74.28Z"/><path d="M76.13,62.53a1,1,0,0,1-.92-.6,10.14,10.14,0,0,0-2-2.68,1,1,0,0,1,0-1.42,1,1,0,0,1,1.41,0A12,12,0,0,1,77,61.13a1,1,0,0,1-.51,1.31A1,1,0,0,1,76.13,62.53Z"/></g></g><text x="0" y="108.71" fill="#000000" font-size="5px" font-weight="bold" font-family="'Helvetica Neue', Helvetica, Arial-Unicode, Arial, Sans-serif">Created by Patrick Straub</text><text x="0" y="113.71" fill="#000000" font-size="5px" font-weight="bold" font-family="'Helvetica Neue', Helvetica, Arial-Unicode, Arial, Sans-serif">from the Noun Project</text></svg>